<?xml version="1.0" encoding="UTF-8" standalone="no"?>
<svg
   version="1.1"
   width="32"
   height="32"
   viewBox="0 0 32 32"
   xmlns="http://www.w3.org/2000/svg"
   xmlns:svg="http://www.w3.org/2000/svg"
>
<path
	d="M 2.6163869,0 H 29.384225 C 30.829462,0 32,1.1822767 32,2.6384804 V 29.360901 C 32,30.818341 30.829462,32 29.384225,32 H 2.6163869 C 1.1711505,32 0,30.818341 0,29.360901 V 2.6384804 C 0,1.1822767 1.1711505,0 2.6163869,0"
    style="fill:#357abe;fill-opacity:1;fill-rule:evenodd;stroke:none;stroke-width:0.615752"
/>
<path
	d="m 20.139744,9.4403787 c 0.105158,-0.6365958 0.225651,-1.7909943 0.940684,-2.0757573 1.423815,-0.5689576 1.414153,1.1862283 1.260119,2.0149393 -0.150623,0.8127983 -1.194185,7.1497693 -2.637325,6.5677373 -1.113475,-0.450732 0.263732,-5.695259 0.436522,-6.5069193 M 16.956196,4.952946 c 1.043563,0.1904103 0.76221,2.3144809 0.767326,3.0795327 0.0068,0.8508787 0.154034,7.1128233 -1.164061,6.9400333 -1.378344,-0.18018 -1.11518,-6.402337 -1.183387,-7.405544 0.0216,-1.0054805 0.147782,-2.8766178 1.580122,-2.614022 m -6.214768,1.8592011 c 1.201575,-1.0191218 1.804068,0.7093498 1.942755,1.5710278 0.136414,0.8480367 1.721082,7.1986501 0.0989,7.0929291 C 11.533761,15.394254 10.656735,10.009336 10.543626,9.1561842 10.424264,8.4974212 10.14007,7.3236973 10.741425,6.8121471 M 6.4205331,12.099872 c -0.1932524,-0.899759 0.045471,-1.929113 0.9577358,-1.804636 0.7843774,0.108566 1.0861914,1.211238 1.2226054,1.992204 0.114246,0.646827 1.8017947,5.338313 0.950915,5.178027 C 8.7520663,17.315412 6.6211744,13.034304 6.4205331,12.099872 M 19.335474,26.223776 c -0.837806,0.463805 -1.935366,0.745159 -2.57594,0.802566 C 14.226223,27.25597 11.67245,26.628469 9.8979388,24.956837 8.1552573,23.174936 7.7755723,20.783154 9.3244333,18.788677 10.76189,16.936865 13.115022,16.128615 15.567053,16.010959 c 1.35845,-0.06594 5.958992,0.413218 4.634077,2.639031 -1.075392,1.80634 -4.097517,0.03694 -5.812917,0.616134 -1.928544,0.650806 -2.466808,3.209125 -0.623522,4.260646 1.344241,0.76903 3.248912,0.687182 4.496527,-0.142099 1.808615,-1.200437 5.134828,-6.694488 7.352683,-4.121958 0.44789,0.519508 -4.615321,6.038568 -6.278427,6.961063"
    style="fill:#ffffff;fill-opacity:1;fill-rule:evenodd;stroke:none;stroke-width:0.568389"
/>
</svg>
